<svg width="24" height="24" viewBox="0 0 24 24" fill="none" xmlns="http://www.w3.org/2000/svg">
<path d="M20.916 9.56414C20.9688 9.44406 20.9975 9.31474 21.0003 9.18359C21.0031 9.05243 20.98 8.92201 20.9323 8.79978C20.8847 8.67755 20.8134 8.56592 20.7226 8.47126C20.6318 8.3766 20.5232 8.30078 20.403 8.24814L7.328 2.49214C6.333 2.05414 5.108 2.54314 4.683 3.53414L2.473 8.68814C2.26509 9.17566 2.25909 9.72576 2.45632 10.2177C2.65354 10.7096 3.03789 11.1032 3.525 11.3121L9.563 13.9001L8.323 17.0001H4V14.0001H2V22.0001H4V19.0001H8.323C9.146 19.0001 9.875 18.5061 10.179 17.7421L11.401 14.6881L16.606 16.9181C16.8484 17.0221 17.1221 17.0262 17.3674 16.9293C17.6128 16.8325 17.81 16.6426 17.916 16.4011L18.228 15.6911L19.929 16.3711L21.929 11.3711L20.393 10.7581L20.916 9.56414ZM16.482 14.6901L4.313 9.47514L6.521 4.32314L18.683 9.67714L16.482 14.6901Z" fill="#14101E"/>
</svg>
