<svg width="198" height="198" viewBox="0 0 198 198" fill="none" xmlns="http://www.w3.org/2000/svg">
<path d="M24.4054 105.078C24.7464 107.823 25.2487 110.5 25.9124 113.109C26.2082 114.27 26.5198 115.43 26.8474 116.589C27.3754 118.455 28.0714 120.44 28.9355 122.542C29.2454 123.295 29.4855 124.047 29.8229 124.768C30.0465 125.243 30.272 125.732 30.4994 126.234C32.3119 130.211 34.4869 134.001 37.0242 137.603C39.3978 140.975 42.0604 144.184 45.012 147.23C46.4677 148.735 48.1544 150.167 49.7714 151.562C50.4204 152.121 51.1048 152.695 51.8247 153.281C52.3655 153.725 52.954 154.07 53.4949 154.504C53.897 154.827 54.3107 155.139 54.736 155.439C59.7019 158.945 64.9862 161.78 70.5889 163.946C72.9062 164.842 75.0225 165.56 76.9377 166.1C79.7574 166.896 82.8099 167.596 85.5562 168.02C93.2024 169.201 100.849 169.219 108.495 168.073C109.534 167.917 110.53 167.704 111.551 167.506C112.913 167.24 114.224 166.91 115.588 166.586C116.254 166.427 116.833 166.276 117.326 166.133C124.834 163.96 131.802 160.706 138.23 156.372C140.293 154.981 142.342 153.441 144.379 151.751C145.651 150.693 146.894 149.505 148.126 148.366C149.093 147.474 150.219 146.298 151.505 144.837C152.165 144.087 152.94 143.381 153.525 142.567C153.827 142.146 154.149 141.726 154.491 141.31C155.079 140.597 155.414 140.186 155.496 140.078C157.524 137.407 159.372 134.618 161.04 131.71C161.816 130.357 162.542 128.836 163.266 127.391C164.248 125.431 165.158 123.319 165.887 121.314C166.652 119.216 167.405 116.97 168.003 114.748C168.779 111.854 169.395 108.851 169.851 105.738C170.076 104.195 170.265 102.322 170.418 100.118C170.649 96.7841 170.641 93.6357 170.394 90.673C170.363 90.3052 170.338 89.9293 170.319 89.5455C170.288 88.9418 170.212 88.1369 170.089 87.131C169.418 81.5736 168.208 76.2881 166.459 71.2745C165.897 69.6624 165.306 68.1585 164.685 66.7627C164.08 65.4042 163.499 64.031 162.84 62.7275C161.003 59.089 158.872 55.5995 156.448 52.2592C155.262 50.6251 153.808 48.8125 152.086 46.8215C151.646 46.3143 151.218 45.8639 150.803 45.4704C149.153 43.9084 147.699 42.1759 145.972 40.7055C145.14 39.9967 144.341 39.3269 143.578 38.6962C142.135 37.5045 140.557 36.3098 138.842 35.112C138.004 34.5254 136.662 33.671 134.818 32.549C132.908 31.3867 131.082 30.4022 129.342 29.5955C128.209 29.0694 127.166 28.4754 125.952 28.0464C125.057 27.7292 124.227 27.2709 123.327 26.9427C120.959 26.0762 118.817 25.3746 116.901 24.838C111.674 23.375 106.113 22.4859 100.217 22.1705C98.3804 22.0715 96.602 22.0599 94.8824 22.1357C93.2531 22.2066 91.6386 22.3227 90.0387 22.484C83.0525 23.1893 76.3957 24.8044 70.0682 27.3295C66.1449 28.8952 62.4965 30.7127 59.1232 32.7819C57.1273 34.0065 55.4902 35.0858 54.2117 36.0195C53.3574 36.6429 52.5012 37.29 51.6432 37.961C50.9355 38.5129 50.2627 39.1032 49.5679 39.6715C48.9653 40.1653 48.4581 40.6059 48.0462 40.9934C46.1567 42.768 44.3349 44.5892 42.581 46.4567C41.8239 47.2615 41.2152 48.0774 40.5222 48.8767C39.5102 50.0445 38.5477 51.3444 37.6127 52.5855C37.3029 52.998 37.103 53.4362 36.7969 53.8414C36.0745 54.7984 35.442 55.847 34.7875 56.8499C34.3035 57.5924 33.8892 58.388 33.4235 59.1507C33.0997 59.6824 32.769 60.2813 32.4317 60.9474C31.7497 62.2943 31.0708 63.6424 30.3949 64.9917C29.9127 65.9542 29.5424 67.1587 29.0437 68.2184C28.8726 68.5838 28.7369 68.9755 28.6367 69.3935C28.5615 69.707 28.3525 69.9765 28.2444 70.2717C26.6042 74.756 25.4076 79.3595 24.6547 84.0822C24.6229 84.2802 24.604 84.4794 24.5979 84.6799C24.585 85.1877 24.4255 85.6589 24.365 86.1722C23.9996 89.3035 23.7973 91.9753 23.7582 94.1875C23.7008 97.5157 23.9165 101.146 24.4054 105.078Z" stroke="#EDEDEF" stroke-width="2"/>
<path d="M103.314 36.2193C103.314 34.8043 102.752 33.4474 101.751 32.4469C100.751 31.4464 99.3939 30.8843 97.9789 30.8843C96.564 30.8843 95.207 31.4464 94.2065 32.4469C93.206 33.4474 92.6439 34.8043 92.6439 36.2193C92.6439 37.6342 93.206 38.9912 94.2065 39.9917C95.207 40.9922 96.564 41.5543 97.9789 41.5543C99.3939 41.5543 100.751 40.9922 101.751 39.9917C102.752 38.9912 103.314 37.6342 103.314 36.2193Z" stroke="#ADC68C" stroke-width="2"/>
<path d="M82.0853 39.8275C82.0876 38.4816 81.5552 37.1899 80.6052 36.2365C79.6552 35.2832 78.3654 34.7463 77.0195 34.7439L76.5685 34.7432C75.2226 34.7408 73.9309 35.2732 72.9776 36.2232C72.0242 37.1733 71.4873 38.4631 71.485 39.809L71.4601 54.0686C71.4577 55.4145 71.9901 56.7062 72.9402 57.6595C73.8902 58.6129 75.18 59.1498 76.5259 59.1521L76.9769 59.1529C78.3228 59.1553 79.6145 58.6229 80.5678 57.6728C81.5211 56.7228 82.0581 55.433 82.0604 54.0871L82.0853 39.8275Z" stroke="#ADC68C" stroke-width="2"/>
<path d="M124.507 39.9134C124.507 38.5364 123.96 37.2158 122.987 36.2421C122.013 35.2684 120.692 34.7214 119.315 34.7214H119.062C117.685 34.7214 116.365 35.2684 115.391 36.2421C114.417 37.2158 113.87 38.5364 113.87 39.9134V75.2014C113.87 76.5784 114.417 77.899 115.391 78.8727C116.365 79.8464 117.685 80.3934 119.062 80.3934H119.315C120.692 80.3934 122.013 79.8464 122.987 78.8727C123.96 77.899 124.507 76.5784 124.507 75.2014V39.9134Z" stroke="#ADC68C" stroke-width="2"/>
<path d="M60.9126 53.7278C60.9126 52.3119 60.3501 50.954 59.3489 49.9528C58.3477 48.9516 56.9898 48.3892 55.5739 48.3892C54.158 48.3892 52.8001 48.9516 51.7989 49.9528C50.7977 50.954 50.2352 52.3119 50.2352 53.7278C50.2352 55.1437 50.7977 56.5016 51.7989 57.5028C52.8001 58.504 54.158 59.0665 55.5739 59.0665C56.9898 59.0665 58.3477 58.504 59.3489 57.5028C60.3501 56.5016 60.9126 55.1437 60.9126 53.7278Z" stroke="#ADC68C" stroke-width="2"/>
<path d="M103.28 53.7165C103.278 52.3556 102.735 51.0513 101.771 50.0906C100.807 49.13 99.5009 48.5916 98.14 48.594L97.7843 48.5946C96.4233 48.597 95.1191 49.1399 94.1584 50.1039C93.1977 51.068 92.6594 52.3741 92.6618 53.7351L92.6993 75.2547C92.7017 76.6157 93.2446 77.9199 94.2086 78.8806C95.1726 79.8413 96.4788 80.3796 97.8398 80.3773L98.1954 80.3766C99.5564 80.3743 100.861 79.8313 101.821 78.8673C102.782 77.9033 103.32 76.5971 103.318 75.2362L103.28 53.7165Z" stroke="#ADC68C" stroke-width="2"/>
<path d="M145.739 53.8671C145.739 52.4517 145.177 51.0942 144.176 50.0934C143.175 49.0925 141.818 48.5303 140.402 48.5303C138.987 48.5303 137.629 49.0925 136.629 50.0934C135.628 51.0942 135.065 52.4517 135.065 53.8671C135.065 55.2825 135.628 56.64 136.629 57.6408C137.629 58.6417 138.987 59.2039 140.402 59.2039C141.818 59.2039 143.175 58.6417 144.176 57.6408C145.177 56.64 145.739 55.2825 145.739 53.8671Z" stroke="#ADC68C" stroke-width="2"/>
<path d="M36.9619 77.2859C37.9702 79.3979 40.1335 80.3531 42.3739 80.3494C53.4863 80.3323 64.647 80.3323 75.856 80.3494C76.5099 80.3494 77.1015 80.2963 77.6307 80.1899C79.1249 79.8911 80.421 79.1504 81.2057 77.8873C81.565 77.3098 81.9555 76.6259 82.0399 75.9384C82.1621 74.9338 82.1205 74.102 81.9152 73.4433C81.4569 71.979 80.5408 70.8754 79.167 70.1323C78.892 69.9838 78.551 69.8573 78.2375 69.8096C77.2793 69.6654 76.2465 69.5933 75.1392 69.5933C64.5572 69.5994 53.9929 69.6 43.4464 69.5951C42.8597 69.5939 42.2706 69.6085 41.679 69.6391C40.8993 69.6794 40.2973 69.7784 39.8732 69.9361C38.3161 70.5154 37.2564 71.602 36.6942 73.1958C36.2175 74.5475 36.3068 75.9109 36.9619 77.2859Z" stroke="#ADC68C" stroke-width="2"/>
<path d="M135.1 75.4527C135.218 78.2412 137.663 80.4265 140.417 80.4247C145.171 80.4222 149.88 80.4192 154.543 80.4155C154.887 80.4155 155.227 80.3624 155.562 80.256C157.49 79.6474 158.751 78.4349 159.346 76.6187C159.812 75.196 159.643 74.1052 159.031 72.7614C158.387 71.3479 156.647 69.8299 154.92 69.8189C149.978 69.7895 144.906 69.7889 139.706 69.817C139.198 69.8195 138.733 69.924 138.31 70.1305C136.069 71.2232 134.999 72.9972 135.1 75.4527Z" stroke="#ADC68C" stroke-width="2"/>
<path d="M43.2703 96.2794C43.2703 95.5796 43.1325 94.8865 42.8646 94.2399C42.5968 93.5933 42.2042 93.0058 41.7094 92.5109C41.2145 92.016 40.6269 91.6235 39.9803 91.3556C39.3337 91.0878 38.6407 90.95 37.9408 90.95C36.5274 90.95 35.1718 91.5115 34.1723 92.5109C33.1728 93.5104 32.6113 94.866 32.6113 96.2794C32.6113 97.6929 33.1728 99.0485 34.1723 100.048C35.1718 101.047 36.5274 101.609 37.9408 101.609C38.6407 101.609 39.3337 101.471 39.9803 101.203C40.6269 100.935 41.2145 100.543 41.7094 100.048C42.2042 99.5531 42.5968 98.9656 42.8646 98.319C43.1325 97.6724 43.2703 96.9793 43.2703 96.2794Z" stroke="#ADC68C" stroke-width="2"/>
<path d="M92.6734 96.2155C92.6758 94.8463 92.1341 93.5322 91.1676 92.5623C90.2011 91.5924 88.8889 91.0462 87.5197 91.0438L55.4291 90.9878C54.0599 90.9854 52.7458 91.527 51.7759 92.4935C50.806 93.46 50.2598 94.7722 50.2574 96.1414L50.257 96.4128C50.2546 97.782 50.7962 99.0961 51.7627 100.066C52.7292 101.036 54.0414 101.582 55.4106 101.584L87.5012 101.64C88.8704 101.643 90.1845 101.101 91.1544 100.135C92.1243 99.1682 92.6705 97.856 92.6729 96.4868L92.6734 96.2155Z" stroke="#ADC68C" stroke-width="2"/>
<path d="M145.717 96.1416C145.714 94.7728 145.168 93.4611 144.199 92.495C143.229 91.5288 141.916 90.9874 140.547 90.9898L108.453 91.0458C107.084 91.0481 105.772 91.5942 104.806 92.5637C103.84 93.5332 103.298 94.8469 103.301 96.2156L103.301 96.4906C103.304 97.8593 103.85 99.1711 104.819 100.137C105.789 101.103 107.102 101.645 108.471 101.642L140.565 101.586C141.934 101.584 143.246 101.038 144.212 100.068C145.178 99.0989 145.72 97.7853 145.717 96.4166L145.717 96.1416Z" stroke="#ADC68C" stroke-width="2"/>
<path d="M163.337 96.2775C163.337 94.865 162.776 93.5103 161.777 92.5116C160.779 91.5128 159.424 90.9517 158.011 90.9517C156.599 90.9517 155.244 91.5128 154.245 92.5116C153.247 93.5103 152.686 94.865 152.686 96.2775C152.686 96.9769 152.823 97.6694 153.091 98.3156C153.359 98.9618 153.751 99.5489 154.245 100.043C154.74 100.538 155.327 100.93 155.973 101.198C156.619 101.466 157.312 101.603 158.011 101.603C159.424 101.603 160.779 101.042 161.777 100.043C162.776 99.0446 163.337 97.69 163.337 96.2775Z" stroke="#ADC68C" stroke-width="2"/>
<path d="M40.0822 122.544C40.6506 122.745 41.2232 122.846 41.8001 122.844C46.0351 122.842 50.3691 122.846 54.8021 122.855C55.7713 122.857 56.5266 122.769 57.0681 122.593C61.1014 121.277 62.2307 116.415 59.1324 113.505C57.9352 112.382 56.5786 112.138 54.9377 112.136C50.4094 112.131 46.106 112.13 42.0274 112.132C39.935 112.132 38.3552 112.921 37.2882 114.497C36.8421 115.157 36.5702 115.851 36.4724 116.578C36.3514 117.484 36.3899 118.27 36.5879 118.938C37.1147 120.704 38.2795 121.906 40.0822 122.544Z" stroke="#ADC68C" stroke-width="2"/>
<path d="M82.0175 117.39C82.0199 116.015 81.476 114.696 80.5053 113.722C79.5347 112.748 78.2169 112.199 76.8419 112.197L76.5852 112.196C75.2102 112.194 73.8905 112.738 72.9165 113.708C71.9424 114.679 71.3939 115.997 71.3915 117.372L71.33 152.634C71.3276 154.009 71.8715 155.329 72.8421 156.303C73.8127 157.277 75.1305 157.825 76.5056 157.828L76.7622 157.828C78.1373 157.831 79.457 157.287 80.431 156.316C81.405 155.346 81.9535 154.028 81.9559 152.653L82.0175 117.39Z" stroke="#ADC68C" stroke-width="2"/>
<path d="M103.318 117.348C103.32 115.988 102.782 114.682 101.822 113.718C100.862 112.755 99.5577 112.212 98.1973 112.21L97.8379 112.209C96.4775 112.207 95.1718 112.745 94.2081 113.705C93.2444 114.665 92.7017 115.969 92.6993 117.33L92.6618 138.857C92.6594 140.217 93.1975 141.523 94.1579 142.487C95.1182 143.45 96.422 143.993 97.7825 143.995L98.1418 143.996C99.5023 143.998 100.808 143.46 101.772 142.5C102.735 141.539 103.278 140.236 103.28 138.875L103.318 117.348Z" stroke="#ADC68C" stroke-width="2"/>
<path d="M159.566 117.345C159.563 115.968 159.014 114.648 158.039 113.676C157.063 112.704 155.742 112.159 154.365 112.162L119.08 112.223C117.703 112.226 116.384 112.775 115.412 113.751C114.44 114.726 113.895 116.048 113.897 117.425L113.898 117.681C113.9 119.058 114.45 120.378 115.425 121.35C116.4 122.322 117.722 122.867 119.099 122.864L154.383 122.803C155.76 122.8 157.08 122.251 158.052 121.275C159.024 120.3 159.569 118.978 159.566 117.601L159.566 117.345Z" stroke="#ADC68C" stroke-width="2"/>
<path d="M60.9089 138.541C60.9089 137.126 60.3468 135.769 59.3463 134.769C58.3458 133.768 56.9888 133.206 55.5739 133.206C54.159 133.206 52.802 133.768 51.8015 134.769C50.801 135.769 50.2389 137.126 50.2389 138.541C50.2389 139.956 50.801 141.313 51.8015 142.314C52.802 143.314 54.159 143.876 55.5739 143.876C56.9888 143.876 58.3458 143.314 59.3463 142.314C60.3468 141.313 60.9089 139.956 60.9089 138.541Z" stroke="#ADC68C" stroke-width="2"/>
<path d="M124.528 138.38C124.533 137.033 124.002 135.738 123.052 134.782C122.103 133.825 120.812 133.285 119.464 133.281L118.998 133.279C117.651 133.274 116.356 133.805 115.4 134.755C114.443 135.705 113.903 136.995 113.899 138.343L113.849 152.537C113.844 153.885 114.375 155.179 115.325 156.136C116.275 157.092 117.566 157.632 118.913 157.637L119.379 157.638C120.727 157.643 122.021 157.112 122.978 156.162C123.934 155.213 124.474 153.922 124.479 152.574L124.528 138.38Z" stroke="#ADC68C" stroke-width="2"/>
<path d="M145.739 138.543C145.739 137.843 145.601 137.149 145.333 136.502C145.065 135.855 144.672 135.267 144.177 134.772C143.682 134.277 143.094 133.884 142.447 133.616C141.8 133.348 141.106 133.21 140.406 133.21C139.706 133.21 139.012 133.348 138.365 133.616C137.718 133.884 137.13 134.277 136.635 134.772C136.14 135.267 135.747 135.855 135.479 136.502C135.211 137.149 135.073 137.843 135.073 138.543C135.073 139.958 135.635 141.314 136.635 142.314C137.635 143.314 138.991 143.876 140.406 143.876C141.82 143.876 143.177 143.314 144.177 142.314C145.177 141.314 145.739 139.958 145.739 138.543Z" stroke="#ADC68C" stroke-width="2"/>
<path d="M103.314 156.118C103.314 154.702 102.752 153.345 101.751 152.344C100.75 151.343 99.3925 150.781 97.9771 150.781C96.5617 150.781 95.2042 151.343 94.2034 152.344C93.2025 153.345 92.6403 154.702 92.6403 156.118C92.6403 157.533 93.2025 158.89 94.2034 159.891C95.2042 160.892 96.5617 161.454 97.9771 161.454C99.3925 161.454 100.75 160.892 101.751 159.891C102.752 158.89 103.314 157.533 103.314 156.118Z" stroke="#ADC68C" stroke-width="2"/>
<path d="M97.9788 41.5543C100.925 41.5543 103.314 39.1657 103.314 36.2193C103.314 33.2728 100.925 30.8843 97.9788 30.8843C95.0324 30.8843 92.6438 33.2728 92.6438 36.2193C92.6438 39.1657 95.0324 41.5543 97.9788 41.5543Z" fill="white"/>
<path d="M77.0194 34.744L76.5684 34.7432C73.7658 34.7383 71.4898 37.0064 71.4849 39.809L71.46 54.0687C71.4551 56.8713 73.7232 59.1473 76.5258 59.1522L76.9768 59.153C79.7795 59.1579 82.0555 56.8898 82.0603 54.0872L82.0852 39.8275C82.0901 37.0249 79.8221 34.7489 77.0194 34.744Z" fill="white"/>
<path d="M119.315 34.7214H119.062C116.195 34.7214 113.87 37.046 113.87 39.9134V75.2014C113.87 78.0689 116.195 80.3934 119.062 80.3934H119.315C122.183 80.3934 124.507 78.0689 124.507 75.2014V39.9134C124.507 37.046 122.183 34.7214 119.315 34.7214Z" fill="white"/>
<path d="M55.5738 59.0662C58.5222 59.0662 60.9124 56.676 60.9124 53.7276C60.9124 50.7791 58.5222 48.3889 55.5738 48.3889C52.6253 48.3889 50.2351 50.7791 50.2351 53.7276C50.2351 56.676 52.6253 59.0662 55.5738 59.0662Z" fill="white"/>
<path d="M98.14 48.5939L97.7843 48.5946C94.9503 48.5995 92.6568 50.901 92.6618 53.735L92.6993 75.2546C92.7043 78.0887 95.0058 80.3821 97.8398 80.3772L98.1955 80.3766C101.03 80.3716 103.323 78.0702 103.318 75.2361L103.28 53.7165C103.275 50.8824 100.974 48.589 98.14 48.5939Z" fill="white"/>
<path d="M140.402 59.2039C143.35 59.2039 145.739 56.8146 145.739 53.8671C145.739 50.9197 143.35 48.5303 140.402 48.5303C137.455 48.5303 135.065 50.9197 135.065 53.8671C135.065 56.8146 137.455 59.2039 140.402 59.2039Z" fill="white"/>
<path d="M36.9619 77.2859C36.3068 75.9109 36.2175 74.5475 36.6942 73.1958C37.2564 71.602 38.3161 70.5154 39.8732 69.9361C40.2973 69.7784 40.8993 69.6794 41.679 69.6391C42.2706 69.6085 42.8597 69.5939 43.4464 69.5951C53.9929 69.6 64.5572 69.5994 75.1392 69.5933C76.2465 69.5933 77.2793 69.6654 78.2375 69.8096C78.551 69.8573 78.892 69.9838 79.167 70.1323C80.5408 70.8754 81.4569 71.979 81.9152 73.4433C82.1205 74.102 82.1621 74.9338 82.0399 75.9384C81.9555 76.6259 81.565 77.3098 81.2057 77.8873C80.421 79.1504 79.1249 79.8911 77.6307 80.1899C77.1015 80.2963 76.5099 80.3494 75.856 80.3494C64.647 80.3323 53.4863 80.3323 42.3739 80.3494C40.1335 80.3531 37.9702 79.3979 36.9619 77.2859Z" fill="white"/>
<path d="M140.417 80.4247C137.663 80.4265 135.217 78.2412 135.1 75.4527C134.999 72.9972 136.069 71.2232 138.31 70.1305C138.733 69.924 139.198 69.8195 139.705 69.817C144.906 69.7889 149.978 69.7895 154.92 69.8189C156.647 69.8299 158.387 71.3479 159.031 72.7614C159.643 74.1052 159.812 75.196 159.346 76.6187C158.751 78.4349 157.489 79.6474 155.562 80.256C155.227 80.3624 154.887 80.4155 154.543 80.4155C149.88 80.4192 145.171 80.4222 140.417 80.4247Z" fill="white"/>
<path d="M37.9408 101.609C40.8842 101.609 43.2703 99.2226 43.2703 96.2792C43.2703 93.3358 40.8842 90.9497 37.9408 90.9497C34.9974 90.9497 32.6113 93.3358 32.6113 96.2792C32.6113 99.2226 34.9974 101.609 37.9408 101.609Z" fill="white"/>
<path d="M87.5198 91.0438L55.4291 90.9878C52.5779 90.9828 50.2624 93.2902 50.2575 96.1414L50.257 96.4128C50.252 99.264 52.5594 101.579 55.4106 101.584L87.5013 101.64C90.3525 101.645 92.668 99.338 92.6729 96.4868L92.6734 96.2154C92.6784 93.3642 90.371 91.0488 87.5198 91.0438Z" fill="white"/>
<path d="M140.547 90.9897L108.453 91.0457C105.602 91.0507 103.296 93.3653 103.301 96.2155L103.301 96.4905C103.306 99.3408 105.621 101.647 108.471 101.642L140.565 101.586C143.416 101.581 145.722 99.2667 145.717 96.4165L145.717 96.1415C145.712 93.2912 143.397 90.9847 140.547 90.9897Z" fill="white"/>
<path d="M158.011 101.603C160.953 101.603 163.337 99.2189 163.337 96.2775C163.337 93.3361 160.953 90.9517 158.011 90.9517C155.07 90.9517 152.686 93.3361 152.686 96.2775C152.686 99.2189 155.07 101.603 158.011 101.603Z" fill="white"/>
<path d="M40.0821 122.544C38.2793 121.906 37.1146 120.704 36.5878 118.937C36.3898 118.27 36.3513 117.484 36.4723 116.578C36.5701 115.851 36.842 115.157 37.2881 114.497C38.3551 112.92 39.9348 112.132 42.0273 112.132C46.1058 112.13 50.4093 112.131 54.9376 112.136C56.5785 112.138 57.9351 112.381 59.1323 113.505C62.2306 116.415 61.1013 121.277 57.068 122.593C56.5265 122.769 55.7712 122.856 54.802 122.855C50.369 122.845 46.035 122.842 41.8 122.844C41.2231 122.845 40.6505 122.745 40.0821 122.544Z" fill="white"/>
<path d="M76.8418 112.197L76.5852 112.196C73.7218 112.191 71.3965 114.508 71.3915 117.372L71.3299 152.634C71.3249 155.497 73.6421 157.823 76.5055 157.828L76.7622 157.828C79.6256 157.833 81.9509 155.516 81.9559 152.652L81.9867 135.021L82.0174 117.39C82.0224 114.527 79.7052 112.202 76.8418 112.197Z" fill="white"/>
<path d="M98.1972 112.21L97.8379 112.209C95.0049 112.204 92.7042 114.497 92.6993 117.33L92.6617 138.857C92.6568 141.69 94.9494 143.99 97.7824 143.995L98.1418 143.996C100.975 144.001 103.275 141.708 103.28 138.875L103.318 117.348C103.323 114.515 101.03 112.214 98.1972 112.21Z" fill="white"/>
<path d="M154.365 112.162L119.08 112.223C116.213 112.228 113.892 114.557 113.897 117.424L113.898 117.681C113.903 120.549 116.232 122.869 119.099 122.864L154.383 122.802C157.251 122.797 159.571 120.469 159.566 117.601L159.566 117.345C159.561 114.477 157.232 112.157 154.365 112.162Z" fill="white"/>
<path d="M55.5739 143.876C58.5203 143.876 60.9089 141.488 60.9089 138.541C60.9089 135.595 58.5203 133.206 55.5739 133.206C52.6275 133.206 50.2389 135.595 50.2389 138.541C50.2389 141.488 52.6275 143.876 55.5739 143.876Z" fill="white"/>
<path d="M119.464 133.281L118.998 133.279C116.192 133.269 113.908 135.537 113.899 138.343L113.849 152.537C113.839 155.343 116.107 157.627 118.913 157.636L119.379 157.638C122.186 157.648 124.469 155.381 124.479 152.574L124.528 138.38C124.538 135.574 122.271 133.29 119.464 133.281Z" fill="white"/>
<path d="M140.406 143.876C143.351 143.876 145.739 141.489 145.739 138.543C145.739 135.598 143.351 133.21 140.406 133.21C137.46 133.21 135.073 135.598 135.073 138.543C135.073 141.489 137.46 143.876 140.406 143.876Z" fill="white"/>
<path d="M97.977 161.454C100.924 161.454 103.314 159.065 103.314 156.118C103.314 153.17 100.924 150.781 97.977 150.781C95.0295 150.781 92.6401 153.17 92.6401 156.118C92.6401 159.065 95.0295 161.454 97.977 161.454Z" fill="white"/>
</svg>
